<?xml version="1.0" encoding="UTF-8"?>
<svg width="16px" height="13px" viewBox="0 0 16 13" version="1.1" xmlns="http://www.w3.org/2000/svg" xmlns:xlink="http://www.w3.org/1999/xlink">
    <!-- Generator: Sketch 58 (84663) - https://sketch.com -->
    <title>noun_Home_2861195</title>
    <desc>Created with Sketch.</desc>
    <g id="Homepage" stroke="none" stroke-width="1" fill="none" fill-rule="evenodd">
        <g id="Desktop" transform="translate(-24.000000, -124.000000)" fill="#FFFFFF" fill-rule="nonzero">
            <g id="noun_Home_2861195" transform="translate(24.000000, 124.000000)">
                <path d="M2,7.17647059 L2,12.3529412 C2,12.7101176 2.2688,13 2.6,13 L6.2,13 L6.2,10.4117647 C6.2,9.33958824 7.0058,8.47058824 8,8.47058824 C8.9942,8.47058824 9.8,9.33958824 9.8,10.4117647 L9.8,13 L13.4,13 C13.7312,13 14,12.7101176 14,12.3529412 L14,7.17647059 L8,2 L2,7.17647059 Z" id="Path"></path>
                <path d="M15.7643013,5.89626574 L8.49136809,0.160431006 C8.21964732,-0.053477002 7.77998804,-0.053477002 7.50826727,0.160431006 L0.235963002,5.89626574 C-0.0351287768,6.10955373 -0.0791576039,6.50016835 0.137841615,6.76739835 C0.354840835,7.03462836 0.750471296,7.07802998 1.02156307,6.86412197 L8.00013217,1.36141597 L14.9787013,6.86412197 C15.249793,7.07802998 15.6460525,7.03462836 15.8624227,6.76739835 C16.078793,6.50016835 16.0353931,6.11017375 15.7643013,5.89626574 Z" id="Path"></path>
                <path d="M13,0.561902978 C13,0.251732534 12.776,0 12.5,0 L11.5,0 C11.224,0 11,0.251732534 11,0.561902978 L11,1.20191047 L13,3 L13,0.561902978 Z" id="Path"></path>
            </g>
        </g>
    </g>
</svg>