<?xml version="1.0" encoding="UTF-8"?>
<svg width="16px" height="15px" viewBox="0 0 16 15" version="1.1" xmlns="http://www.w3.org/2000/svg" xmlns:xlink="http://www.w3.org/1999/xlink">
    <!-- Generator: Sketch 60.1 (88133) - https://sketch.com -->
    <title>noun_champion_1676552</title>
    <desc>Created with Sketch.</desc>
    <g id="Homepage" stroke="none" stroke-width="1" fill="none" fill-rule="evenodd">
        <g id="Desktop" transform="translate(-24.000000, -168.000000)" fill="#FFFFFF" fill-rule="nonzero">
            <g id="noun_champion_1676552" transform="translate(24.000000, 168.000000)">
                <path d="M15.9998442,1.57894737 C15.9825309,1.30354636 15.7636273,1.08951749 15.499705,1.09010108 L12.4298257,1.09010108 L12.4298257,0.522830254 C12.4298257,0.234079078 12.2059769,0 11.9298454,0 L4.07015458,0 C3.79402307,0 3.57017425,0.234079078 3.57017425,0.522830254 L3.57017425,1.09010108 L0.500295008,1.09010108 C0.236372708,1.08951749 0.0174690733,1.30354636 0.000155776564,1.57894737 C0.000155776564,1.57894737 0.000155776564,1.66521436 0.000155776564,1.81422098 C-0.0156798983,4.13439087 1.17684877,6.27988204 3.11269225,7.41373301 L4.7001298,8.34959916 C5.21374544,8.94678828 5.86919184,9.39139734 6.60005507,9.63837574 L6.60005507,11.4003137 L5.07011525,11.4003137 C4.79398374,11.4003137 4.57013492,11.6343928 4.57013492,11.923144 L4.57013492,14.4771697 C4.57013492,14.7659209 4.79398374,15 5.07011525,15 L10.9298848,15 C11.2060163,15 11.4298651,14.7659209 11.4298651,14.4771697 L11.4298651,11.923144 C11.4298651,11.6343928 11.2060163,11.4003137 10.9298848,11.4003137 L9.39994493,11.4003137 L9.39994493,9.63837574 C10.1308082,9.39139734 10.7862546,8.94678828 11.2998702,8.34959916 L12.8873078,7.41373301 C14.8231512,6.27988204 16.0156799,4.13439087 15.9998442,1.81422098 C15.9998442,1.66521436 15.9998442,1.57894737 15.9998442,1.57894737 Z M3.60517287,6.50400837 C2.07643326,5.61307759 1.0926403,3.96331962 1.00027534,2.13576159 L3.57017425,2.13576159 L3.57017425,5.29627048 C3.56968512,5.73875149 3.63030847,6.1789872 3.75016717,6.60334611 L3.60517287,6.50400837 Z M12.3948271,6.50400837 L12.2498328,6.59027536 C12.3696915,6.16591645 12.4303149,5.72568073 12.4298257,5.28319972 L12.4298257,2.13576159 L14.9997247,2.13576159 C14.9073597,3.96331962 13.9235667,5.61307759 12.3948271,6.50400837 Z" id="Shape"></path>
            </g>
        </g>
    </g>
</svg>