<?xml version="1.0" encoding="UTF-8"?>
<svg width="14px" height="14px" viewBox="0 0 14 14" version="1.1" xmlns="http://www.w3.org/2000/svg" xmlns:xlink="http://www.w3.org/1999/xlink">
    <!-- Generator: Sketch 58 (84663) - https://sketch.com -->
    <title>noun_message_1392358</title>
    <desc>Created with Sketch.</desc>
    <g id="Homepage" stroke="none" stroke-width="1" fill="none" fill-rule="evenodd">
        <g id="Desktop" transform="translate(-25.000000, -287.000000)">
            <g id="noun_message_1392358" transform="translate(24.000000, 286.000000)">
                <g id="Group">
                    <g>
                        <rect id="Rectangle" x="0" y="0" width="16" height="16"></rect>
                        <path d="M1.43212349,6.64407119 C1.90112069,3.98911482 4.12595043,1.85214402 6.88411913,1.4208631 C11.4229268,0.710781867 15.2904096,4.42488046 14.5826501,8.79673853 C14.1547387,11.4434729 11.9740955,13.5946453 9.2422836,14.0797429 C7.88025367,14.3211705 6.58179035,14.1537409 5.44069301,13.6940567 C5.12828661,13.567737 4.77789531,13.5587675 4.47324092,13.7007838 L2.4848478,14.6306165 C2.20655028,14.7606735 1.89724469,14.5184984 1.97166408,14.2292337 L2.52980951,12.0616173 C2.60810492,11.7603934 2.53756153,11.4479576 2.36546669,11.1856013 C1.52514773,9.9067076 1.13522113,8.32659 1.43212349,6.64407119 Z" id="Shape" fill="#FFFFFF" fill-rule="nonzero"></path>
                        <path d="M4.66666667,9.33333333 C4.66666667,9.70409013 4.96239094,10 5.32718531,10 L8.006148,10 C8.36601653,10 8.66666667,9.70152313 8.66666667,9.33333333 C8.66666667,8.96257653 8.3709424,8.66666667 8.006148,8.66666667 L5.32718531,8.66666667 C4.96731679,8.66666667 4.66666667,8.96514353 4.66666667,9.33333333 Z" id="Path" fill="#1F276C" fill-rule="nonzero"></path>
                        <path d="M4.66666667,6.66666667 C4.66666667,7.03742347 4.96376978,7.33333333 5.33026505,7.33333333 L10.6697349,7.33333333 C11.0295571,7.33333333 11.3333333,7.03485647 11.3333333,6.66666667 C11.3333333,6.29590988 11.0362302,6 10.6697349,6 L5.33026505,6 C4.97044293,6 4.66666667,6.29847683 4.66666667,6.66666667 Z" id="Path" fill="#1F276C" fill-rule="nonzero"></path>
                    </g>
                </g>
            </g>
        </g>
    </g>
</svg>