<?xml version="1.0" encoding="UTF-8"?>
<svg width="16px" height="17px" viewBox="0 0 16 17" version="1.1" xmlns="http://www.w3.org/2000/svg" xmlns:xlink="http://www.w3.org/1999/xlink">
    <!-- Generator: Sketch 60.1 (88133) - https://sketch.com -->
    <title>noun_notification_2184970</title>
    <desc>Created with Sketch.</desc>
    <g id="Homepage" stroke="none" stroke-width="1" fill="none" fill-rule="evenodd">
        <g id="Desktop" transform="translate(-24.000000, -132.000000)" fill="#FFFFFF" fill-rule="nonzero">
            <g id="noun_notification_2184970" transform="translate(24.000000, 132.000000)">
                <g id="Group">
                    <g id="Shape">
                        <path d="M14.665971,11.05 C15.3999341,11.05 16,11.6588927 16,12.41 C16,13.1595789 15.4015699,13.77 14.6633689,13.77 L1.33663107,13.77 C0.5980175,13.77 0,13.1611073 0,12.41 C0,11.6604211 0.5972651,11.05 1.33402897,11.05 C1.7005798,11.05 2,10.7452883 2,10.3694073 L2,6.2897448 C2,2.90845894 4.6862915,0.17 8,0.17 C11.3144371,0.17 14,2.90990309 14,6.2897448 L14,10.3694073 C14,10.747651 14.2981654,11.05 14.665971,11.05 Z M5.66666667,14.45 L10.3333333,14.45 C10.3333333,15.7644377 9.2886644,16.83 8,16.83 C6.7113356,16.83 5.66666667,15.7644377 5.66666667,14.45 Z"></path>
                    </g>
                </g>
            </g>
        </g>
    </g>
</svg>