<?xml version="1.0" encoding="UTF-8"?>
<svg width="17px" height="17px" viewBox="0 0 17 17" version="1.1" xmlns="http://www.w3.org/2000/svg" xmlns:xlink="http://www.w3.org/1999/xlink">
    <!-- Generator: Sketch 58 (84663) - https://sketch.com -->
    <title>noun_Settings_2863081</title>
    <desc>Created with Sketch.</desc>
    <g id="Homepage" stroke="none" stroke-width="1" fill="none" fill-rule="evenodd">
        <g id="Desktop" transform="translate(-23.000000, -903.000000)" fill="#FFFFFF" fill-rule="nonzero">
            <g id="noun_Settings_2863081" transform="translate(23.000000, 903.000000)">
                <g id="Group">
                    <path d="M8.5,11.3333333 C6.93519321,11.3333333 5.66666667,10.0648068 5.66666667,8.5 C5.66666667,6.93519321 6.93519321,5.66666667 8.5,5.66666667 C10.0648068,5.66666667 11.3333333,6.93519321 11.3333333,8.5 C11.3333333,10.0648068 10.0648068,11.3333333 8.5,11.3333333 Z M8.5,9.91666667 C9.2824034,9.91666667 9.91666667,9.2824034 9.91666667,8.5 C9.91666667,7.7175966 9.2824034,7.08333333 8.5,7.08333333 C7.7175966,7.08333333 7.08333333,7.7175966 7.08333333,8.5 C7.08333333,9.2824034 7.7175966,9.91666667 8.5,9.91666667 Z" id="Shape"></path>
                    <path d="M14.81125,9.20833333 L14.875,9.20833333 C15.2662017,9.20833333 15.5833333,8.89120166 15.5833333,8.5 C15.5833333,8.10879834 15.2662017,7.79166667 14.875,7.79166667 L14.7517583,7.79166667 C14.0036064,7.78867715 13.3286655,7.34169643 13.0339426,6.65403474 C13.0082899,6.5941805 12.9910717,6.5312125 12.9826577,6.46693168 C12.7479897,5.79750844 12.910822,5.04661277 13.4178827,4.52829935 L13.4606614,4.48552083 C13.5936701,4.35265995 13.6684061,4.17237322 13.6684061,3.984375 C13.6684061,3.79637678 13.5936701,3.61609002 13.4601042,3.48267195 C13.3272433,3.34966321 13.1469565,3.27492724 12.9589583,3.27492724 C12.7709602,3.27492724 12.5906734,3.34966321 12.457534,3.48295064 L12.4094794,3.53094433 C11.860931,4.06752382 11.0410174,4.21618948 10.3459653,3.90939071 C9.65830357,3.61466783 9.21132285,2.93972691 9.20833333,2.18875 L9.20833333,2.125 C9.20833333,1.7337983 8.89120166,1.41666667 8.5,1.41666667 C8.10879834,1.41666667 7.79166667,1.7337983 7.79166667,2.125 L7.79166667,2.24824172 C7.78867715,2.99639358 7.34169643,3.67133449 6.65403474,3.96605738 C6.5941805,3.99171013 6.5312125,4.00892834 6.46693168,4.01734231 C5.79750844,4.25201025 5.04661277,4.089178 4.52829935,3.5821173 L4.48552083,3.53933862 C4.35265995,3.40632988 4.17237322,3.33159391 3.984375,3.33159391 C3.79637678,3.33159391 3.61609002,3.40632988 3.48267195,3.53989583 C3.34966321,3.67275668 3.27492724,3.85304345 3.27492724,4.04104167 C3.27492724,4.22903989 3.34966321,4.40932662 3.48295064,4.54246602 L3.53094433,4.59052062 C4.06752382,5.13906897 4.21618948,5.95898259 3.92312974,6.61950328 C3.65707858,7.3428877 2.97586155,7.83011578 2.18875,7.84833333 L2.125,7.84833333 C1.7337983,7.84833333 1.41666667,8.165465 1.41666667,8.55666667 C1.41666667,8.94786833 1.7337983,9.265 2.125,9.265 L2.24824172,9.26500567 C2.99639358,9.26798952 3.67133449,9.71497024 3.96302766,10.3956662 C4.27285615,11.0976841 4.12419049,11.9175977 3.5821173,12.4717007 L3.53933862,12.5144792 C3.40632988,12.64734 3.33159391,12.8276268 3.33159391,13.015625 C3.33159391,13.2036232 3.40632988,13.38391 3.53989583,13.5173281 C3.67275668,13.6503368 3.85304345,13.7250728 4.04104167,13.7250728 C4.22903989,13.7250728 4.40932662,13.6503368 4.54246602,13.5170494 L4.59052062,13.4690557 C5.13906897,12.9324762 5.95898259,12.7838105 6.61950328,13.0768703 C7.3428877,13.3429214 7.83011578,14.0241385 7.84833333,14.81125 L7.84833333,14.875 C7.84833333,15.2662017 8.165465,15.5833333 8.55666667,15.5833333 C8.94786833,15.5833333 9.265,15.2662017 9.265,14.875 L9.26500567,14.7517583 C9.26798952,14.0036064 9.71497024,13.3286655 10.3956662,13.0369723 C11.0976841,12.7271439 11.9175977,12.8758095 12.4717007,13.4178827 L12.5144792,13.4606614 C12.64734,13.5936701 12.8276268,13.6684061 13.015625,13.6684061 C13.2036232,13.6684061 13.38391,13.5936701 13.5173281,13.4601042 C13.6503368,13.3272433 13.7250728,13.1469565 13.7250728,12.9589583 C13.7250728,12.7709602 13.6503368,12.5906734 13.5170494,12.457534 L13.4690557,12.4094794 C12.9333617,11.8618363 12.7843023,11.043723 13.0921087,10.3424764 C13.3876174,9.65679163 14.0615443,9.21131783 14.81125,9.20833333 Z M14.3783156,6.17324875 C14.4625115,6.29737099 14.6032389,6.37439168 14.7545833,6.375 L14.875,6.375 C16.0486051,6.375 17,7.32639494 17,8.5 C17,9.67360506 16.0486051,10.625 14.875,10.625 L14.814075,10.625 C14.6305661,10.6257263 14.4650145,10.7353631 14.392724,10.9040347 C14.3136987,11.0831935 14.3501638,11.2843044 14.476284,11.4132993 L14.5185053,11.4555208 C14.9175315,11.8541034 15.1417394,12.3949637 15.1417394,12.9589583 C15.1417394,13.522953 14.9175315,14.0638133 14.5190625,14.4618386 C14.1204799,14.8608649 13.5796196,15.0850728 13.015625,15.0850728 C12.4516304,15.0850728 11.9107701,14.8608649 11.512466,14.4621173 L11.4755206,14.425111 C11.3409711,14.2934972 11.1398602,14.257032 10.9607014,14.3360574 C10.7920297,14.4083479 10.6823929,14.5738995 10.6816667,14.7545833 L10.6816667,14.875 C10.6816667,16.0486051 9.73027172,17 8.55666667,17 C7.38306161,17 6.43166667,16.0486051 6.43166667,14.875 C6.4274394,14.6388118 6.30793068,14.4717209 6.08899958,14.3896943 C5.91680651,14.3136987 5.71569559,14.3501638 5.58670065,14.476284 L5.54447917,14.5185053 C5.1458966,14.9175315 4.60503629,15.1417394 4.04104167,15.1417394 C3.47704702,15.1417394 2.93618671,14.9175315 2.53816138,14.5190625 C2.13913517,14.1204799 1.91492724,13.5796196 1.91492724,13.015625 C1.91492724,12.4516304 2.13913517,11.9107701 2.5378827,11.512466 L2.57488901,11.4755206 C2.70650284,11.3409711 2.742968,11.1398602 2.66394262,10.9607014 C2.5916521,10.7920297 2.42610056,10.6823929 2.24541667,10.6816667 L2.125,10.6816667 C0.951394906,10.6816667 0,9.73027172 0,8.55666667 C0,7.38306161 0.951394906,6.43166667 2.125,6.43166667 C2.36118813,6.4274394 2.52827909,6.30793068 2.61030567,6.08899958 C2.68630133,5.91680651 2.64983618,5.71569559 2.52371603,5.58670065 L2.48149472,5.54447917 C2.0824685,5.1458966 1.85826057,4.60503629 1.85826057,4.04104167 C1.85826057,3.47704702 2.0824685,2.93618671 2.4809375,2.53816138 C2.87952005,2.13913517 3.42038035,1.91492724 3.984375,1.91492724 C4.54836962,1.91492724 5.08922993,2.13913517 5.48753398,2.5378827 L5.52447938,2.57488901 C5.65902892,2.70650284 5.86013984,2.742968 6.03233291,2.66697234 C6.0777171,2.64694248 6.12495401,2.63179062 6.17324875,2.62168437 C6.29737099,2.53748853 6.37439168,2.39676108 6.375,2.24541667 L6.375,2.125 C6.375,0.951394906 7.32639494,0 8.5,0 C9.67360506,0 10.625,0.951394906 10.625,2.125 L10.625,2.18592495 C10.6257263,2.36943389 10.7353631,2.53498544 10.9110004,2.61030567 C11.0831935,2.68630133 11.2843044,2.64983618 11.4132993,2.52371603 L11.4555208,2.48149472 C11.8541034,2.0824685 12.3949637,1.85826057 12.9589583,1.85826057 C13.522953,1.85826057 14.0638133,2.0824685 14.4618386,2.4809375 C14.8608649,2.87952005 15.0850728,3.42038035 15.0850728,3.984375 C15.0850728,4.54836962 14.8608649,5.08922993 14.4621173,5.48753398 L14.425111,5.52447938 C14.2934972,5.65902892 14.257032,5.86013984 14.3330277,6.03233291 C14.3530575,6.0777171 14.3682094,6.12495401 14.3783156,6.17324875 Z" id="Shape"></path>
                </g>
            </g>
        </g>
    </g>
</svg>