<?xml version="1.0" encoding="UTF-8"?>
<svg width="38px" height="49px" viewBox="0 0 38 49" version="1.1" xmlns="http://www.w3.org/2000/svg" xmlns:xlink="http://www.w3.org/1999/xlink">
    <!-- Generator: Sketch 60.1 (88133) - https://sketch.com -->
    <title>Path 9</title>
    <desc>Created with Sketch.</desc>
    <g id="Homepage" stroke="none" stroke-width="1" fill="none" fill-rule="evenodd">
        <path d="M10,25 L10,47 C10,48.1045695 10.8954305,49 12,49 L26,49 C27.1045695,49 28,48.1045695 28,47 L28,25 C28,23.8954305 28.8954305,23 30,23 L35.5924635,23 C36.697033,23 37.5924635,22.1045695 37.5924635,21 C37.5924635,20.5155537 37.4166271,20.0475738 37.0976169,19.6829908 L20.5051534,0.720175302 C19.7777893,-0.111097961 18.514264,-0.195332977 17.6829908,0.532031129 C17.6161692,0.590499978 17.5533155,0.65335376 17.4948466,0.720175302 L0.902383064,19.6829908 C0.175018959,20.514264 0.259253974,21.7777893 1.09052724,22.5051534 C1.45511023,22.8241635 1.92309016,23 2.40753645,23 L8,23 C9.1045695,23 10,23.8954305 10,25 Z" id="Path-9" fill="#212529"></path>
    </g>
</svg>