<?xml version="1.0" encoding="UTF-8"?>
<svg width="136px" height="136px" viewBox="0 0 136 136" version="1.1" xmlns="http://www.w3.org/2000/svg" xmlns:xlink="http://www.w3.org/1999/xlink">
    <!-- Generator: Sketch 60.1 (88133) - https://sketch.com -->
    <title>Group 7</title>
    <desc>Created with Sketch.</desc>
    <g id="Homepage" stroke="none" stroke-width="1" fill="none" fill-rule="evenodd">
        <g id="Group-7">
            <g id="noun_List_2804963-Copy" fill="#212529" fill-rule="nonzero">
                <path d="M119.33579,-1.42108547e-14 L15.7612,-1.42108547e-14 C11.5810609,-1.42108547e-14 7.57212107,1.66051169 4.61631638,4.61631638 C1.66051169,7.57212107 0,11.5810609 0,15.7612 L0,119.33579 C0,123.515952 1.66049097,127.524919 4.61629193,130.48076 C7.57209288,133.4366 11.5810384,135.0972 15.7612,135.0972 L119.33579,135.0972 C128.04057,135.0972 135.0972,128.04057 135.0972,119.33579 L135.0972,15.7612 C135.0972,11.5810384 133.4366,7.57209288 130.48076,4.61629193 C127.524919,1.66049097 123.515952,-1.42108547e-14 119.33579,-1.42108547e-14 Z M29.34616,110.52632 C25.4832546,110.52632 22.000693,108.199435 20.5224025,104.630584 C19.044112,101.061733 19.8612198,96.9537931 22.5927065,94.2223065 C25.3241931,91.4908198 29.4321332,90.673712 33.000984,92.1520025 C36.5698348,93.630293 38.89672,97.1128546 38.89672,100.97576 C38.89672,106.250357 34.6207566,110.52632 29.34616,110.52632 Z M29.34616,77.09916 C25.4832604,77.09916 22.0007062,74.7722717 20.5224198,71.2034255 C19.0441335,67.6345794 19.8612411,63.526646 22.5927235,60.7951635 C25.324206,58.0636811 29.4321394,57.2465735 33.0009855,58.7248598 C36.5698317,60.2031462 38.89672,63.6857004 38.89672,67.5486 C38.89672,72.8231966 34.6207566,77.09916 29.34616,77.09916 L29.34616,77.09916 Z M29.34616,43.672 C24.0714774,43.672 19.7954,39.3961259 19.7954,34.1214433 C19.7954,28.8467608 24.0712708,24.57068 29.3459533,24.57068 C34.6206359,24.57068 38.89672,28.8465474 38.89672,34.12123 C38.89672,39.3958995 34.6208295,43.672 29.34616,43.672 L29.34616,43.672 Z M110.52632,105.751 L57.99784,105.751 C55.363166,105.747187 53.2293604,103.610292 53.2293604,100.975615 C53.2293604,98.3409382 55.363166,96.2040426 57.99784,96.20023 L110.52632,96.20023 C113.160994,96.2040426 115.2948,98.3409382 115.2948,100.975615 C115.2948,103.610292 113.160994,105.747187 110.52632,105.751 L110.52632,105.751 Z M110.52632,72.32384 L57.99784,72.32384 C55.363166,72.3200274 53.2293604,70.1831318 53.2293604,67.548455 C53.2293604,64.9137782 55.363166,62.7768826 57.99784,62.77307 L110.52632,62.77307 C113.160994,62.7768826 115.2948,64.9137782 115.2948,67.548455 C115.2948,70.1831318 113.160994,72.3200274 110.52632,72.32384 L110.52632,72.32384 Z M110.52632,38.89668 L57.99784,38.89668 C55.3604705,38.89668 53.22246,36.7586695 53.22246,34.1213 C53.22246,31.4839305 55.3604705,29.34592 57.99784,29.34592 L110.52632,29.34592 C113.16369,29.34592 115.3017,31.4839305 115.3017,34.1213 C115.3017,36.7586695 113.16369,38.89668 110.52632,38.89668 Z" id="Shape"></path>
            </g>
            <rect id="Rectangle" fill="#212529" x="13" y="10" width="110" height="102"></rect>
            <polyline id="Path-6" stroke="#FFFFFF" stroke-width="9" stroke-linecap="round" stroke-linejoin="round" points="32 66.9367089 59.69 96 103 40"></polyline>
        </g>
    </g>
</svg>