<?xml version="1.0" encoding="UTF-8"?>
<svg width="91px" height="90px" viewBox="0 0 91 90" version="1.1" xmlns="http://www.w3.org/2000/svg" xmlns:xlink="http://www.w3.org/1999/xlink">
    <!-- Generator: Sketch 61 (89581) - https://sketch.com -->
    <title>noun_compose_108014</title>
    <desc>Created with Sketch.</desc>
    <g id="Homepage" stroke="none" stroke-width="1" fill="none" fill-rule="evenodd">
        <g id="noun_compose_108014" fill="#212529" fill-rule="nonzero">
            <g id="Group">
                <path d="M37.2,39.1 C36.4,39.9 35.7,40.9 35.3,41.9 L28.5,57 C27.4,59.8 29.7,62.1 32.4,60.9 L47.5,54.2 C48.5,53.7 49.5,53.1 50.3,52.3 L87.3,16 C91,12.3 91,6.4 87.3,2.8 C83.6,-0.9 77.7,-0.9 74.1,2.8 L37.2,39.1 Z" id="Path"></path>
                <path d="M78.6,50.5 C75.5,50.5 73,53 73,56.1 L73,73.3 C73,76.4 70.5,78.9 67.4,78.9 L16.7,78.9 C13.6,78.9 11.1,76.4 11.1,73.3 L11.1,22.5 C11.1,19.4 13.6,16.9 16.7,16.9 L33.2,16.9 C36.3,16.9 38.8,14.4 38.8,11.3 C38.8,8.2 36.3,5.7 33.2,5.7 L16.7,5.7 C7.5,5.8 0,13.3 0,22.5 L0,73.3 C0,82.5 7.5,90 16.7,90 L67.5,90 C76.7,90 84.2,82.5 84.2,73.3 L84.2,56.1 C84.2,53 81.7,50.5 78.6,50.5 Z" id="Path"></path>
            </g>
        </g>
    </g>
</svg>