<?xml version="1.0" encoding="UTF-8"?>
<svg width="40px" height="40px" viewBox="0 0 40 40" version="1.1" xmlns="http://www.w3.org/2000/svg" xmlns:xlink="http://www.w3.org/1999/xlink">
    <!-- Generator: Sketch 60.1 (88133) - https://sketch.com -->
    <title>Group 6</title>
    <desc>Created with Sketch.</desc>
    <g id="Homepage" stroke="none" stroke-width="1" fill="none" fill-rule="evenodd">
        <g id="Group-6">
            <circle id="Oval" fill="#FAA61A" cx="20" cy="20" r="20"></circle>
            <g id="noun_champion_1676552" transform="translate(8.000000, 10.000000)" fill="#FFFFFF" fill-rule="nonzero">
                <path d="M23.9997663,2.31578947 C23.9737964,1.911868 23.6454409,1.59795898 23.2495575,1.59881492 L18.6447386,1.59881492 L18.6447386,0.766817707 C18.6447386,0.343315981 18.3089654,0 17.8947681,0 L6.10523188,0 C5.69103461,0 5.35526138,0.343315981 5.35526138,0.766817707 L5.35526138,1.59881492 L0.750442512,1.59881492 C0.354559062,1.59795898 0.0262036099,1.911868 0.000233664847,2.31578947 C0.000233664847,2.31578947 0.000233664847,2.4423144 0.000233664847,2.66085744 C-0.0235198475,6.06377327 1.76527315,9.21049366 4.66903837,10.8734751 L7.05019471,12.2460788 C7.82061816,13.1219562 8.80378776,13.7740494 9.9000826,14.1362844 L9.9000826,16.7204601 L7.60517287,16.7204601 C7.19097561,16.7204601 6.85520238,17.0637761 6.85520238,17.4872778 L6.85520238,21.2331823 C6.85520238,21.656684 7.19097561,22 7.60517287,22 L16.3948271,22 C16.8090244,22 17.1447976,21.656684 17.1447976,21.2331823 L17.1447976,17.4872778 C17.1447976,17.0637761 16.8090244,16.7204601 16.3948271,16.7204601 L14.0999174,16.7204601 L14.0999174,14.1362844 C15.1962122,13.7740494 16.1793818,13.1219562 16.9498053,12.2460788 L19.3309616,10.8734751 C22.2347268,9.21049366 24.0235198,6.06377327 23.9997663,2.66085744 C23.9997663,2.4423144 23.9997663,2.31578947 23.9997663,2.31578947 Z M5.40775931,9.53921227 C3.11464989,8.2325138 1.63896044,5.81286878 1.50041301,3.13245033 L5.35526138,3.13245033 L5.35526138,7.76786337 C5.35452768,8.41683552 5.44546271,9.06251457 5.62525076,9.68490763 L5.40775931,9.53921227 Z M18.5922407,9.53921227 L18.3747492,9.66573719 C18.5545373,9.04334412 18.6454723,8.39766507 18.6447386,7.74869292 L18.6447386,3.13245033 L22.499587,3.13245033 C22.3610396,5.81286878 20.8853501,8.2325138 18.5922407,9.53921227 Z" id="Shape"></path>
            </g>
        </g>
    </g>
</svg>